{"title":"JUST TEENS PORN CO ED GIRL SILVERDUST{HKRG}","uid":6237163,"size":398528758,"categoryP":"porn","categoryS":"movie_clips","magnet":"?xt=urn:btih:0f67779991ef460b02d04a12298ef39c360082e5&amp;dn=JUST+TEENS+PORN+CO+ED+GIRL+SILVERDUST%7BHKRG%7D&amp;tr=udp%3A%2F%2Ftracker.openbittorrent.com%3A80&amp;tr=udp%3A%2F%2Fopen.demonii.com%3A1337&amp;tr=udp%3A%2F%2Ftracker.coppersurfer.tk%3A6969&amp;tr=udp%3A%2F%2Fexodus.desync.com%3A6969","seeders":0,"leechers":1,"uploader":"dodgerblue","files":6,"time":1299921160,"description":"JUST TEENS PORN CO ED GIRL SILVERDUST{HKRG}\n\nFormat                           : Windows Media\nFile size                        : 377 MiB\nDuration                         : 16mn 48s\nOverall bit rate mode            : Variable\nOverall bit rate                 : 3 139 Kbps\nMaximum Overall bit rate         : 6 154 Kbps\nEncoded date                     : UTC 2008-05-25 12:53:08.106 &lt;a href=&quot;\nhttp://img2.immage.de/12036deb9image49868859.jpg&quot; rel=&quot;nofollow&quot; target=&quot;_NEW&quot;&gt;\nhttp://img2.immage.de/12036deb9image49868859.jpg&lt;/a&gt; &lt;a href=&quot;\nhttp://img1.immage.de/1203a3image49873359.jpg&quot; rel=&quot;nofollow&quot; target=&quot;_NEW&quot;&gt;\nhttp://img1.immage.de/1203a3image49873359.jpg&lt;/a&gt;\n[img]http://img2.immage.de/12036deb9image49868859.jpg[/img]\n\n\n[img]http://img1.immage.de/1203a3image49873359.jpg[/img]\n\n &lt;a href=&quot;\nhttp://www.leetleech.org/images/25378654780725389363.jpg&quot; rel=&quot;nofollow&quot; target=&quot;_NEW&quot;&gt;\nhttp://www.leetleech.org/images/25378654780725389363.jpg&lt;/a&gt;\n    &lt;a href=&quot;\thttp://www.leetleech.org/images/86874817413577517891.png&quot; rel=&quot;nofollow&quot; target=&quot;_NEW&quot;&gt;\thttp://www.leetleech.org/images/86874817413577517891.png&lt;/a&gt;\n    &lt;a href=&quot;\thttp://www.leetleech.org/images/80707099141266829033.png&quot; rel=&quot;nofollow&quot; target=&quot;_NEW&quot;&gt;\thttp://www.leetleech.org/images/80707099141266829033.png&lt;/a&gt;\n    &lt;a href=&quot;\thttp://www.leetleech.org/images/62255931877173311856.png&quot; rel=&quot;nofollow&quot; target=&quot;_NEW&quot;&gt;\thttp://www.leetleech.org/images/62255931877173311856.png&lt;/a&gt;\nVideo\nID                               : 2\nFormat                           : VC-1\nFormat profile                   : MP@ML\nCodec ID                         : WMV3\nCodec ID/Info                    : Windows Media Video 9\nCodec ID/Hint                    : WMV3\nDescription of the codec         : Windows Media Video 9\nDuration                         : 16mn 48s\nBit rate mode                    : Variable\nBit rate                         : 3 000 Kbps\nWidth                            : 352 pixels\nHeight                           : 288 pixels\nDisplay aspect ratio             : 4:3\nFrame rate                       : 25.000 fps\nStandard                         : PAL\nBit depth                        : 8 bits\nScan type                        : Progressive\nCompression mode                 : Lossy\nBits/(Pixel*Frame)               : 1.184\nStream size                      : 361 MiB (96%)\n\nAudio\nID                               : 1\nFormat                           : WMA\nFormat version                   : Version 2\nCodec ID                         : 161\nCodec ID/Info                    : Windows Media Audio\nDescription of the codec         : Windows Media Audio 9.2 - 127 kbps, 48 kHz, stereo Low Delay 2-pass CBR\nDuration                         : 16mn 48s\nBit rate mode                    : Constant\nBit rate                         : 127 Kbps\nChannel(s)                       : 2 channels\nSampling rate                    : 48.0 KHz\nBit depth                        : 16 bits\nStream size                      : 15.3 MiB (4%)\n\nNJOI","torrent":{"xt":"urn:btih:0f67779991ef460b02d04a12298ef39c360082e5","amp;dn":"JUST+TEENS+PORN+CO+ED+GIRL+SILVERDUST%7BHKRG%7D","amp;tr":["udp%3A%2F%2Ftracker.openbittorrent.com%3A80","udp%3A%2F%2Fopen.demonii.com%3A1337","udp%3A%2F%2Ftracker.coppersurfer.tk%3A6969","udp%3A%2F%2Fexodus.desync.com%3A6969"],"infoHash":"0f67779991ef460b02d04a12298ef39c360082e5","infoHashBuffer":{"type":"Buffer","data":[15,103,119,153,145,239,70,11,2,208,74,18,41,142,243,156,54,0,130,229]},"announce":[],"urlList":[]}}